<svg width="24" height="24" viewBox="0 0 24 24" fill="none" xmlns="http://www.w3.org/2000/svg">
<path d="M2.61011 19C3.09011 19 3.52011 18.7 3.67011 18.25L4.68011 15.42H10.3301L11.3201 18.24C11.4801 18.7 11.9101 19 12.3901 19C13.1801 19 13.7201 18.21 13.4401 17.48L9.19011 6.17C8.93011 5.47 8.25011 5 7.50011 5C6.75011 5 6.07011 5.47 5.81011 6.17L1.56011 17.48C1.28011 18.21 1.83011 19 2.61011 19ZM7.44011 7.6H7.56011L9.59011 13.39H5.41011L7.44011 7.6ZM15.0001 12C15.0001 11.45 15.4501 11 16.0001 11H22.0001C22.5501 11 23.0001 11.45 23.0001 12C23.0001 12.55 22.5501 13 22.0001 13H16.0001C15.4501 13 15.0001 12.55 15.0001 12Z" fill="black"/>
</svg>
