<svg width="24" height="24" viewBox="0 0 24 24" fill="none" xmlns="http://www.w3.org/2000/svg">
<path d="M12 0.268982L18.364 6.63298C19.6227 7.89166 20.4798 9.49531 20.8271 11.2411C21.1743 12.987 20.9961 14.7966 20.3149 16.4411C19.6337 18.0856 18.4802 19.4912 17.0001 20.4801C15.5201 21.4691 13.78 21.9969 12 21.9969C10.22 21.9969 8.47992 21.4691 6.99988 20.4801C5.51984 19.4912 4.36629 18.0856 3.6851 16.4411C3.00391 14.7966 2.82567 12.987 3.17293 11.2411C3.52019 9.49531 4.37734 7.89166 5.636 6.63298L12 0.268982ZM12 3.09698L7.05 8.04698C6.07069 9.02619 5.40384 10.2739 5.13383 11.6322C4.86382 12.9905 5.00278 14.3984 5.53313 15.6777C6.06349 16.957 6.96139 18.0502 8.11324 18.8191C9.26509 19.588 10.6191 19.9979 12.004 19.997L12 3.09698Z" fill="black"/>
</svg>
