<?xml version="1.0" standalone="no"?>
<!DOCTYPE svg PUBLIC "-//W3C//DTD SVG 20010904//EN"
 "http://www.w3.org/TR/2001/REC-SVG-20010904/DTD/svg10.dtd">
<svg version="1.0" xmlns="http://www.w3.org/2000/svg"
 width="200.000000pt" height="200.000000pt" viewBox="0 0 200.000000 200.000000"
 preserveAspectRatio="xMidYMid meet">

<g transform="translate(0.000000,200.000000) scale(0.100000,-0.100000)"
fill="#000000" stroke="none">
<path d="M292 1697 c-78 -78 -142 -147 -142 -153 0 -5 18 -28 40 -49 l40 -39
70 69 70 69 0 -594 0 -594 -70 69 -70 69 -40 -39 c-22 -21 -40 -44 -40 -50 0
-5 64 -74 143 -153 l142 -142 148 148 147 148 -45 44 -45 44 -70 -69 -70 -69
0 594 0 594 70 -69 70 -70 45 45 45 45 -148 148 -147 147 -143 -143z"/>
<path d="M870 1750 l0 -60 500 0 500 0 0 60 0 60 -500 0 -500 0 0 -60z"/>
<path d="M874 1426 c-3 -7 -4 -35 -2 -62 l3 -49 498 -3 497 -2 0 65 0 65 -495
0 c-412 0 -497 -2 -501 -14z"/>
<path d="M870 1000 l0 -60 500 0 500 0 0 60 0 60 -500 0 -500 0 0 -60z"/>
<path d="M874 676 c-3 -7 -4 -35 -2 -62 l3 -49 498 -3 497 -2 0 65 0 65 -495
0 c-412 0 -497 -2 -501 -14z"/>
<path d="M870 250 l0 -60 500 0 500 0 0 60 0 60 -500 0 -500 0 0 -60z"/>
</g>
</svg>
