<svg width="1512" height="252" viewBox="0 0 1512 252" fill="none" xmlns="http://www.w3.org/2000/svg">
<g clip-path="url(#clip0_107_3972)">
<g filter="url(#filter0_d_107_3972)">
<path d="M1566.15 90.2646C1568.23 84.2421 1569.38 77.8868 1569.38 71.2937C1569.38 34.1284 1533.61 4 1489.48 4C1445.35 4 1410.95 33.019 1409.65 69.2334C1404.76 68.5836 1399.74 68.2191 1394.64 68.2191C1346.2 68.2191 1306.27 98.8071 1300.51 138.302C1287.94 143.691 1276.8 151.124 1267.75 160.094C1254.84 152.55 1239.16 148.097 1222.24 148.097C1202.73 148.097 1184.85 153.992 1170.96 163.787C1153.56 146.496 1127.61 135.497 1098.57 135.497C1051.9 135.497 1013.14 163.882 1005.21 201.269C996.35 199.256 987.054 198.163 977.438 198.163C953.821 198.163 932.011 204.661 914.359 215.66C901.921 208.94 887.148 205.009 871.266 205.009C857.754 205.009 845.014 207.846 833.855 212.839C819.459 204.867 802.617 199.764 784.476 198.496C783.799 198.448 783.14 198.401 782.463 198.369C781.691 198.321 780.901 198.29 780.129 198.258C778.793 198.21 777.457 198.179 776.121 198.179C775.933 198.179 775.763 198.179 775.575 198.179C775.538 198.179 775.519 198.179 775.481 198.179C775.444 198.179 775.425 198.179 775.387 198.179C775.199 198.179 775.03 198.179 774.841 198.179C773.505 198.179 772.169 198.21 770.833 198.258C770.043 198.29 769.271 198.321 768.5 198.369C767.822 198.401 767.164 198.448 766.486 198.496C748.345 199.764 731.503 204.867 717.107 212.839C705.948 207.846 693.227 205.009 679.697 205.009C663.814 205.009 649.042 208.924 636.603 215.66C618.97 204.677 597.16 198.163 573.524 198.163C563.908 198.163 554.593 199.256 545.749 201.269C537.826 163.882 499.061 135.497 452.392 135.497C423.355 135.497 397.405 146.496 379.998 163.787C366.129 153.992 348.252 148.097 328.719 148.097C311.801 148.097 296.126 152.534 283.216 160.094C274.146 151.124 263.025 143.691 250.454 138.302C244.714 98.8071 204.782 68.2191 156.326 68.2191C151.207 68.2191 146.201 68.5677 141.309 69.2334C140.01 33.0349 104.783 4 61.4819 4C18.1812 4 -18.4201 34.1284 -18.4201 71.2937C-18.4201 77.8868 -17.2722 84.2421 -15.1834 90.2646C-40.0234 106.636 -56 132.089 -56 160.712C-56 194.93 -33.1736 224.63 0.341618 239.671V372.277H500.228V352.212C519.272 367.554 545.09 377 573.543 377C610.069 377 642.286 361.452 661.387 337.806C667.277 338.963 673.393 339.597 679.715 339.597C682.745 339.597 685.737 339.438 688.692 339.153C705.496 359.154 731.785 373.069 762.064 376.271C762.252 376.287 762.421 376.303 762.61 376.334C764.529 376.524 766.448 376.683 768.387 376.794C768.631 376.794 768.876 376.826 769.121 376.841C771.191 376.937 773.279 377.016 775.406 377.016C775.443 377.016 775.462 377.016 775.5 377.016C775.538 377.016 775.556 377.016 775.594 377.016C777.702 377.016 779.791 376.952 781.879 376.841C782.124 376.841 782.369 376.81 782.613 376.794C784.552 376.683 786.49 376.54 788.39 376.334C788.579 376.318 788.748 376.303 788.936 376.271C819.215 373.069 845.504 359.154 862.308 339.153C865.263 339.438 868.255 339.597 871.284 339.597C877.589 339.597 883.723 338.963 889.613 337.806C908.714 361.468 940.931 377 977.457 377C1005.91 377 1031.71 367.57 1050.77 352.212V372.277H1550.66V239.671C1584.17 224.63 1607 194.93 1607 160.712C1607 132.089 1591.02 106.636 1566.18 90.2646H1566.15Z" fill="#F8F8F8"/>
</g>
<path d="M1573.38 205.942C1576.43 200.422 1578.63 194.474 1579.76 188.161C1586.18 152.536 1557.12 119.275 1514.86 113.866C1473.39 108.552 1434.63 132.059 1427.14 166.606C1422.57 165.384 1417.83 164.433 1412.94 163.798C1376.87 159.182 1342.51 172.918 1323.22 196.727C1309.3 181.833 1288.9 171.19 1264.89 168.112C1225.39 163.053 1187.97 180.009 1170.11 208.083C1162.45 204.594 1153.97 202.119 1144.86 200.962C1110.97 196.631 1078.89 211.525 1064.2 235.984C1058.32 234.271 1052.19 232.954 1045.81 232.129C1024.23 229.37 1003.19 232.494 984.998 240.06C973.445 229.243 957.545 221.597 939.143 219.25C907.419 215.189 877.275 227.974 861.507 249.672C855.016 247.134 848.016 245.31 840.583 244.359C815.821 241.186 792.019 248.308 775.253 261.902C758.488 248.308 734.704 241.186 709.924 244.359C702.491 245.31 695.491 247.134 689 249.672C673.232 227.974 643.088 215.189 611.364 219.25C592.962 221.597 577.062 229.243 565.509 240.06C547.295 232.494 526.277 229.37 504.695 232.129C498.316 232.938 492.182 234.255 486.311 235.984C471.616 211.541 439.553 196.631 405.646 200.962C396.539 202.119 388.053 204.594 380.395 208.083C362.538 180.009 325.113 163.053 285.617 168.112C261.608 171.19 241.23 181.833 227.287 196.727C208 172.918 173.642 159.182 137.571 163.798C132.679 164.433 127.937 165.368 123.365 166.606C115.876 132.059 77.1145 108.552 35.6435 113.866C-6.61777 119.275 -35.67 152.536 -29.2537 188.161C-28.1247 194.474 -25.9232 200.438 -22.875 205.942C-43.8363 224.675 -54.7497 251.036 -49.8199 278.477C-41.2961 325.808 11.1448 358.371 67.2924 351.186C84.3211 349.013 99.7316 343.414 112.696 335.356C130.496 371.124 175.392 393.552 222.94 387.461C251.917 383.75 276.19 370.188 291.751 351.424C303.944 394.916 353.883 423.943 407.227 417.122C430.502 414.14 450.749 404.782 465.896 391.506C485.954 402.006 510.358 406.797 535.535 403.561C573.468 398.707 603.386 376.945 616.181 348.743C622.183 349.187 628.355 349.061 634.583 348.252C642.016 347.3 649.015 345.476 655.507 342.938C671.275 364.637 701.419 377.421 733.143 373.36C749.626 371.251 764.095 364.89 775.235 355.818C786.374 364.89 800.844 371.251 817.327 373.36C849.051 377.421 879.194 364.637 894.962 342.938C901.454 345.476 908.453 347.3 915.886 348.252C922.114 349.045 928.267 349.172 934.288 348.743C947.083 376.945 977.001 398.707 1014.93 403.561C1040.11 406.781 1064.52 402.006 1084.57 391.506C1099.72 404.798 1119.97 414.14 1143.24 417.122C1196.59 423.943 1246.52 394.916 1258.72 351.424C1274.28 370.188 1298.57 383.75 1327.53 387.461C1375.1 393.552 1419.97 371.124 1437.77 335.356C1450.76 343.398 1466.15 348.997 1483.18 351.186C1539.32 358.371 1591.77 325.823 1600.29 278.477C1605.24 251.036 1594.32 224.675 1573.34 205.942H1573.38Z" fill="#4BB8DF" fill-opacity="0.7"/>
</g>
<defs>
<filter id="filter0_d_107_3972" x="-89" y="-29" width="1743" height="453.016" filterUnits="userSpaceOnUse" color-interpolation-filters="sRGB">
<feFlood flood-opacity="0" result="BackgroundImageFix"/>
<feColorMatrix in="SourceAlpha" type="matrix" values="0 0 0 0 0 0 0 0 0 0 0 0 0 0 0 0 0 0 127 0" result="hardAlpha"/>
<feOffset dx="7" dy="7"/>
<feGaussianBlur stdDeviation="20"/>
<feColorMatrix type="matrix" values="0 0 0 0 0.8125 0 0 0 0 0.8125 0 0 0 0 0.8125 0 0 0 0.75 0"/>
<feBlend mode="normal" in2="BackgroundImageFix" result="effect1_dropShadow_107_3972"/>
<feBlend mode="normal" in="SourceGraphic" in2="effect1_dropShadow_107_3972" result="shape"/>
</filter>
<clipPath id="clip0_107_3972">
<rect width="1512" height="252" fill="white"/>
</clipPath>
</defs>
</svg>
