<svg width="1512" height="831" viewBox="0 0 1512 831" fill="none" xmlns="http://www.w3.org/2000/svg">
<g clip-path="url(#clip0_102_4324)">
<path d="M1524.18 -86.0303H-3.42358V846.496H1524.18V-86.0303Z" fill="#10A9E4"/>
<mask id="mask0_102_4324" style="mask-type:luminance" maskUnits="userSpaceOnUse" x="-4" y="-87" width="1529" height="934">
<path d="M1524.18 -86.0303H-3.42358V846.496H1524.18V-86.0303Z" fill="white"/>
</mask>
<g mask="url(#mask0_102_4324)">
<path d="M-72.4305 499.783C-39.5565 509.854 -5.62341 518.284 29.043 519.012C63.7093 519.739 99.4756 512.167 127.034 492.901C154.591 473.635 172.556 441.556 168.014 410.074C164.063 382.713 144.693 359.68 131.087 335.043C117.481 310.424 110.271 278.382 129.05 256.804C141.8 242.163 163.329 236.437 183.738 235.113C204.147 233.789 224.78 235.99 245.025 233.341C306.394 225.34 352.976 171.179 358.74 114.668C364.484 58.1569 335.337 2.07474 292.279 -38.7513C249.201 -79.5773 193.393 -107.124 136.749 -130.158C-24.1583 -177.138 -227.268 -167.44 -326.094 -37.1287C-424.92 93.2012 -403.207 372.157 -72.4305 499.764V499.783Z" fill="#4BB8DF"/>
<path d="M699.212 -131.78C700.495 -67.7154 676.094 -3.48299 631.692 46.0155C613.483 66.3073 587.106 85.5733 559.039 80.2392C540.688 76.7516 526.145 62.9315 518.975 47.0786C511.806 31.2256 511.073 13.5636 512.315 -3.5576C515.798 -51.9371 534.638 -99.2908 565.944 -138.401C596.802 -177.586 696.096 -209.198 699.212 -131.78Z" fill="#4BB8DF"/>
<path d="M1358.63 862.442C1375.82 784.017 1342.43 698.057 1275.04 647.178C1207.64 596.299 1109.12 582.684 1028.32 613.085C983.733 629.87 945.787 658.256 905.683 682.744C865.578 707.233 820.422 728.625 772.211 728.233C731.068 727.897 692.368 711.802 653.364 699.81C614.359 687.817 570.425 680.003 532.989 695.613C506.958 706.468 487.303 727.674 475.062 751.341C462.821 774.99 457.321 801.101 453.716 827.062C444.754 888.068 478.219 1044.94 883.176 1067.84C1288.13 1090.74 1337.26 952.879 1358.63 862.442Z" fill="#4BB8DF"/>
<path d="M1581.05 841.983C1567.81 841.367 1554.55 840.714 1541.35 839.577C1521.63 837.861 1501.57 834.075 1485.01 824.153C1468.45 814.231 1455.93 797.128 1456.88 779.018C1457.7 763.333 1468.09 749.476 1479.23 737.521C1495.26 720.288 1514.12 704.677 1536.79 695.688C1556.28 687.967 1578.93 685.635 1598.99 691.435C1677.06 717.901 1719.79 848.529 1581.05 842.001V841.983Z" fill="#4BB8DF"/>
<path d="M453.941 319.115C448.686 332.469 443.329 345.972 434.733 357.778C426.138 369.584 413.795 379.73 398.804 383.329C373.915 389.316 346.397 374.769 335.806 353.302C325.215 331.816 329.879 305.706 343.831 285.899C354.443 270.829 370.554 258.613 389.496 254.006C408.418 249.4 430.069 253.13 444.408 265.346C458.747 277.562 462.393 297.705 453.961 319.115H453.941Z" fill="#4BB8DF"/>
</g>
<path d="M410.513 504.008C401.914 468.901 415.831 429.895 445.377 406.315C487.496 372.708 552.823 371.939 593.128 336.513C619.19 313.608 630.315 279.776 634.798 246.88C641.054 200.958 636.347 154.098 644.416 108.438C652.485 62.7596 677.1 15.6001 722.906 -3.51858L1516.49 -22C1516.49 -22 1524.85 658.795 1523.93 658.72C1481.12 693.808 1429.65 773.418 1373.22 782.752C1316.8 792.087 1255.18 781.534 1210.86 748.057C1166.89 714.843 1138.87 660.018 1084.06 646.016C1027.9 631.658 965.673 667.328 911.165 648.303C877.972 636.719 856.475 555.647 828.518 535.535C783.384 503.033 718.668 496.311 665.995 517.117C635.409 529.206 609.755 549.637 581.228 565.401C552.701 581.164 518.183 591.411 486.334 582.451L410.493 504.008H410.513Z" fill="white"/>
<path d="M475.632 658.965C480.867 663.665 478.341 673.251 471.335 675.247C464.328 677.242 456.303 670.659 457.709 664.056C459.114 657.473 469.705 653.631 475.632 658.965Z" fill="#43B9FC"/>
<path d="M91.96 417.888C97.1945 422.588 94.6689 432.174 87.6623 434.17C80.6557 436.165 72.6307 429.582 74.0361 422.98C75.4415 416.396 86.0329 412.554 91.96 417.888Z" fill="#6BC0FE"/>
<path d="M1107.63 686.027C1112.87 690.727 1110.34 700.313 1103.33 702.309C1096.33 704.304 1088.3 697.721 1089.71 691.118C1091.11 684.535 1101.7 680.693 1107.63 686.027Z" fill="#6BC0FE"/>
<path d="M284.376 -0.517809C289.611 4.18212 287.085 13.7685 280.079 15.7641C273.072 17.7597 265.047 11.1761 266.453 4.57379C267.858 -2.00985 278.449 -5.85186 284.376 -0.517809Z" fill="#6BC0FE"/>
<path d="M459.073 198.446C464.308 203.146 461.782 212.732 454.775 214.728C447.769 216.723 439.744 210.139 441.149 203.537C442.555 196.954 453.146 193.112 459.073 198.427V198.446Z" fill="#43B9FC"/>
<mask id="mask1_102_4324" style="mask-type:luminance" maskUnits="userSpaceOnUse" x="-3" y="-3" width="1527" height="834">
<path d="M1524 -3H-3V831H1524V-3Z" fill="white"/>
</mask>
<g mask="url(#mask1_102_4324)">
<g style="mix-blend-mode:multiply" opacity="0.15">
<path d="M507.741 580.367C480.367 551.11 451.677 524.337 421.482 499.168C416.478 494.993 408.764 494.924 403.741 499.082C403.515 499.271 403.29 499.461 403.064 499.651C398.003 503.964 397.533 511.174 401.822 516.143C403.553 518.144 405.321 520.093 407.09 522.077C360.057 569.965 312.026 617.008 263.018 663.188C148.746 694.636 38.4444 725.567 -71.8577 756.48C-73.5697 758.171 -59.2716 984 -59.2716 984L300.325 970.527C317.012 896.729 333.681 822.93 350.349 749.131C394.297 697.431 440.69 646.834 487.253 596.307C487.893 596.79 488.495 597.29 489.134 597.773C494.722 602.034 502.981 601.413 507.741 596.393C512.086 591.804 512.086 584.99 507.741 580.367Z" fill="#2E2854"/>
</g>
<path d="M608.816 278.678C602.956 291.232 595.62 303.955 583.294 311.503C570.967 319.05 552.355 319.405 542.878 308.925C537.078 302.517 535.785 293.586 536.027 285.236C536.351 273.765 539.2 262.163 545.768 252.43C552.315 242.696 562.843 234.962 575.008 232.664C587.173 230.366 600.814 234.084 608.574 243.033C616.354 251.981 615.161 265.152 608.836 278.697L608.816 278.678Z" fill="white"/>
<path d="M720.869 598.503C707.572 602.395 693.175 605.291 679.366 601.022C665.557 596.752 652.997 583.013 654.606 568.974C655.586 560.387 661.437 553.518 667.867 548.184C676.693 540.85 687.285 535.326 698.931 533.828C710.564 532.314 723.325 535.11 733.086 542.726C742.846 550.342 749.065 563.039 747.472 574.776C745.892 586.528 735.215 594.333 720.868 598.53L720.869 598.503Z" fill="white"/>
<path d="M478.374 578.402C433.665 621.187 388.972 663.972 346.533 707.935C328.291 769.213 310.049 830.49 291.806 891.768L-11.8524 885.953C-11.8524 885.953 -11.0586 695.302 -9.51854 693.964C85.1545 673.219 179.812 652.458 277.851 631.466C324.433 592.751 370.142 553.15 414.946 512.719L478.374 578.402Z" fill="#72CCF1"/>
<path d="M314.351 753.366C314.462 753.032 314.478 752.683 314.494 752.334C314.795 748.293 311.668 744.571 307.81 742.608C303.952 740.631 299.459 740.064 295.077 739.526C270.515 736.502 245.319 737.287 221.329 732.039C206.675 728.826 194.196 720.089 183.288 710.567C172.381 701.03 162.49 690.446 150.439 682.159C148.201 680.618 145.819 679.135 143.12 678.467C141.088 677.972 138.738 677.856 136.912 678.757C128.609 682.886 122.48 688.498 121.925 695.534C121.369 702.585 138.754 741.663 196.53 761.987C254.321 782.311 291.107 781.861 298.173 777.412C305.238 772.964 311.62 761.377 314.319 753.366H314.351Z" fill="#00B147"/>
<path d="M314.351 753.366C313.7 756.346 311.287 758.891 308.381 760.432C305.158 762.147 301.38 762.772 297.68 763.194C280.518 765.127 263.006 762.976 246.399 758.542C229.792 754.108 213.994 747.449 198.578 740.282C174.286 728.986 149.709 715.422 135.849 693.95C134.42 691.725 133.086 689.385 132.705 686.826C132.324 684.267 133.055 681.461 135.166 679.76C135.69 679.339 136.293 679.004 136.913 678.757C86.9167 692.118 34.0948 705.856 -17.2824 721.295C-22.2677 783.46 -23.0774 845.9 -14.4563 908.675C75.6125 912.106 165.792 912.92 263.053 908.908C279.549 858.796 297.823 803.479 314.335 753.366H314.351Z" fill="#74C244"/>
<path d="M109.509 812.652C107.096 809.701 102.047 808.916 98.6972 810.951C95.3472 813.001 94.1882 817.551 96.2204 820.735C98.2527 823.919 103.159 825.227 106.747 823.555C110.335 821.869 113.002 816.926 109.493 812.652H109.509Z" stroke="white" stroke-width="2.1807" stroke-linecap="round" stroke-linejoin="round"/>
<path d="M247.224 785.379C245.462 783.794 242.366 783.707 240.492 785.175C238.619 786.644 238.238 789.464 239.683 791.296C241.112 793.128 244.144 793.724 246.271 792.575C248.399 791.427 250.209 788.068 247.224 785.379Z" stroke="white" stroke-width="2.1807" stroke-linecap="round" stroke-linejoin="round"/>
<g style="mix-blend-mode:multiply" opacity="0.15">
<path d="M150.487 861.485C94.7282 872.069 37.4449 870.731 -18.9811 864.669C-17.9332 879.323 -16.4408 893.977 -14.4245 908.661C75.6443 912.092 165.824 912.906 263.085 908.893C275.612 870.833 289.171 829.792 302.19 790.292C259.783 828.091 205.802 850.959 150.487 861.47V861.485Z" fill="#2E2854"/>
</g>
<g style="mix-blend-mode:soft-light" opacity="0.5">
<path d="M-11.4873 820.706C74.5646 746.199 283.661 650.03 283.661 650.03L-10.2172 708.72C-10.7887 732.461 -11.2015 780.581 -11.4714 820.706H-11.4873Z" fill="white"/>
</g>
<g style="mix-blend-mode:soft-light" opacity="0.5">
<path d="M198.149 695.782C162.395 697.308 132.245 724.887 96.4585 724.799C90.0285 724.799 83.3761 723.782 77.978 720.569C72.5799 717.37 68.6584 711.613 69.3093 705.755C70.2143 697.584 78.9147 692.234 87.0119 688.731C114.32 676.897 144.565 672.23 174.382 667.781C188.115 665.732 202.229 663.696 215.82 666.444C221.504 667.592 227.6 670.122 229.569 675.138C231.776 680.749 227.505 687.102 221.742 689.894C215.979 692.685 209.628 695.273 198.165 695.767L198.149 695.782Z" fill="white"/>
</g>
<g style="mix-blend-mode:soft-light" opacity="0.5">
<path d="M266.133 657.27C260.703 653.723 252.336 654.712 248.113 659.451C243.906 664.19 244.557 671.939 249.558 675.981C254.559 680.022 263.101 679.601 267.578 675.079C272.055 670.543 272.659 661.559 266.117 657.285L266.133 657.27Z" fill="white"/>
</g>
<g style="mix-blend-mode:soft-light" opacity="0.5">
<path d="M375.016 587.764C362.156 602.215 349.121 616.826 332.8 627.962C330.037 629.852 327.068 631.684 323.671 632.236C320.273 632.788 316.336 631.756 314.605 629.023C312.017 624.938 315.383 619.951 318.67 616.317C336.579 596.545 357.012 578.693 379.43 563.253C381.859 561.581 384.796 559.837 387.733 560.564C391.195 561.422 392.671 565.492 391.703 568.661C390.718 571.831 388.051 574.273 385.511 576.614C382.97 578.94 380.525 581.6 375.032 587.779L375.016 587.764Z" fill="white"/>
</g>
<path d="M261.593 689.312C259.83 687.727 256.734 687.64 254.861 689.108C252.987 690.577 252.606 693.397 254.051 695.229C255.48 697.06 258.512 697.657 260.64 696.508C262.767 695.36 264.577 692.001 261.593 689.312Z" stroke="white" stroke-width="2.1807" stroke-linecap="round" stroke-linejoin="round"/>
<g style="mix-blend-mode:multiply" opacity="0.15">
<path d="M414.946 512.734C410.771 516.514 406.563 520.265 402.372 524.03C420.074 548.73 440.936 571.525 464.386 591.806C469.038 587.343 473.706 582.88 478.358 578.416L414.93 512.734H414.946Z" fill="#2E2854"/>
</g>
<path d="M487.773 586.979C483.486 590.977 476.484 591.093 472.023 587.255C446.477 565.23 423.25 540.966 403.134 514.435C399.8 510.044 400.609 504.011 405.118 500.624C405.325 500.478 405.515 500.333 405.722 500.187C410.183 496.931 416.677 497.367 420.662 501.118C444.667 523.71 467.308 547.61 488.709 573.532C492.091 577.617 491.71 583.359 487.789 587.008L487.773 586.979Z" fill="#72CCF1"/>
<g style="mix-blend-mode:soft-light" opacity="0.5">
<path d="M411.675 507.297C416.788 502.833 429.886 515.918 436.697 523.594C443.508 531.255 445.525 533.174 442.349 537.681C439.174 542.188 428.536 533.363 424.964 530.296C421.408 527.228 405.277 512.85 411.675 507.297Z" fill="white"/>
</g>
<g style="mix-blend-mode:soft-light" opacity="0.5">
<path d="M445.191 540.487C449.034 536.169 455.003 541.824 451.764 545.851C448.526 549.878 440.667 545.561 445.191 540.487Z" fill="white"/>
</g>
<g style="mix-blend-mode:multiply" opacity="0.15">
<path d="M1133.12 759.262C1131.29 757.959 1129.41 756.694 1127.53 755.441C1130.97 749.991 1134.13 744.547 1137.1 739.044C1137.77 737.798 1137.36 736.249 1136.12 735.398C1130.58 731.575 1125.12 728.357 1119.53 725.47C1118.07 724.719 1116.24 725.149 1115.38 726.417C1111.84 731.685 1108.45 736.969 1105.17 742.285C1102.82 741.053 1100.46 739.841 1098.08 738.674C1095.59 737.451 1092.56 738.061 1090.91 740.082C1090.66 740.389 1090.41 740.709 1090.18 741.044C1088.55 743.35 1089.23 746.527 1091.71 748.198C1092.19 748.522 1092.69 748.837 1093.17 749.161C1054.26 802.591 1017.7 857.525 984.028 914.299C978.19 924.156 982.09 936.719 992.797 942.704C992.926 942.775 993.055 942.845 993.183 942.916C1003.99 948.931 1017.76 945.929 1024.12 936.262C1060.27 881.24 1094.61 825.156 1127.08 768.138C1127.12 768.158 1127.17 768.179 1127.22 768.211C1130.13 769.571 1133.66 768.532 1134.95 765.846C1134.96 765.811 1134.97 765.791 1134.99 765.759C1136.06 763.503 1135.29 760.827 1133.12 759.285L1133.12 759.262Z" fill="#2E2854"/>
</g>
<path d="M1079.17 730.23C1042.62 787.594 1008.65 846.411 977.897 907.021C972.733 917.202 977.457 929.551 988.519 934.94C988.65 934.999 988.778 935.07 988.921 935.132C1000.08 940.54 1013.6 936.771 1019.29 926.734C1052.53 868.138 1083.81 808.555 1113.03 748.089L1079.17 730.242L1079.17 730.23Z" fill="#7EE0FF"/>
<path d="M1094.86 759.903L1078.67 752.254C1077.17 751.542 1076.48 749.883 1077.13 748.48C1082.83 736.053 1089.26 723.899 1096.31 711.766C1097.08 710.446 1098.87 709.912 1100.38 710.579C1106.14 713.156 1111.79 716.08 1117.56 719.579C1118.85 720.358 1119.37 721.891 1118.78 723.175C1113.34 735.085 1107.11 746.755 1098.93 758.917C1098.09 760.167 1096.32 760.584 1094.87 759.906L1094.86 759.903Z" fill="#272054"/>
<path d="M1067.2 824.405L1016.89 917.618C1013.24 924.387 1004.54 927.329 996.717 924.502L996.403 924.386C987.366 921.089 983.202 911.365 987.422 903.522C1003.6 873.506 1019.83 843.983 1036.81 814.832L1067.19 824.403L1067.2 824.405Z" fill="#74C244"/>
<path d="M1036.81 814.832C1036.91 814.627 1037.06 814.454 1037.25 814.301C1038.05 813.692 1039.29 813.873 1040.36 814.081C1048.33 815.685 1056.18 817.88 1063.78 820.654C1065.36 821.227 1067.18 822.115 1067.32 823.579C1067.45 824.841 1066.13 825.86 1064.73 826.063C1063.33 826.277 1061.86 826.018 1058.41 825.481C1051.69 824.436 1045.15 822.139 1039.38 818.782C1038.47 818.261 1037.55 817.679 1037.02 816.851C1036.62 816.235 1036.5 815.437 1036.81 814.832Z" fill="#00B147"/>
<g style="mix-blend-mode:soft-light" opacity="0.5">
<path d="M1072.62 751.827L985.18 901.354L996.397 909.684L1076.14 753.368L1072.62 751.827Z" fill="white"/>
</g>
<g style="mix-blend-mode:soft-light" opacity="0.5">
<path d="M1058.21 796.149C1050.06 811.028 1041.91 825.907 1033.76 840.786C1031.38 845.124 1028.89 849.594 1024.76 852.585C1022.84 853.967 1019.79 854.892 1018.08 853.187C1016.6 851.713 1017.27 849.419 1018.04 847.592C1026.44 827.76 1036.34 808.498 1047.65 789.991C1050.43 785.455 1053.32 780.916 1057.32 777.266C1058.39 776.306 1059.57 775.38 1061.03 775.045C1062.48 774.71 1064.27 775.133 1065.05 776.349C1065.74 777.43 1065.49 778.776 1065.17 779.967C1064.05 784.123 1062.55 788.221 1058.21 796.16L1058.21 796.149Z" fill="white"/>
</g>
<g style="mix-blend-mode:soft-light" opacity="0.5">
<path d="M1074.19 758.729C1076.3 760.472 1076.56 763.773 1074.75 765.668C1072.93 767.563 1069.35 767.719 1067.22 765.985C1065.09 764.25 1064.81 760.956 1066.61 759.048C1068.42 757.139 1072.02 756.928 1074.19 758.729Z" fill="white"/>
</g>
<g style="mix-blend-mode:multiply" opacity="0.15">
<path d="M1073.93 738.511C1085.3 744.993 1097.47 750.232 1110.1 754.071C1111.07 752.069 1112.06 750.08 1113.03 748.089L1079.17 730.242C1077.42 732.997 1075.67 735.765 1073.92 738.52L1073.93 738.511Z" fill="#2E2854"/>
</g>
<path d="M1082.37 791.764C1081.14 790.171 1078.56 789.616 1076.77 790.56C1074.97 791.503 1074.23 793.796 1075.16 795.557C1076.07 797.316 1078.52 798.273 1080.47 797.628C1082.41 796.983 1084.46 794.458 1082.37 791.764Z" stroke="white" stroke-width="1.73927" stroke-linecap="round" stroke-linejoin="round"/>
<path d="M1074.17 734.864C1085.86 741.784 1098.14 747.81 1110.86 752.879C1113.86 754.077 1117.31 752.835 1118.4 750.078C1118.41 750.044 1118.42 750.021 1118.43 749.989C1119.35 747.669 1118.41 745.046 1116.14 743.626C1104.6 736.416 1092.32 730.274 1079.87 724.993C1077.31 723.911 1074.32 724.683 1072.81 726.8C1072.59 727.123 1072.36 727.459 1072.15 727.798C1070.67 730.191 1071.56 733.337 1074.15 734.861L1074.17 734.864Z" fill="#7EE0FF"/>
<g style="mix-blend-mode:soft-light" opacity="0.5">
<path d="M1090.06 738.382C1086.41 736.85 1082.84 735.099 1079.4 733.125C1078.1 732.379 1076.62 731.258 1076.81 729.974C1076.93 729.182 1077.72 728.667 1078.59 728.556C1079.45 728.442 1080.38 728.659 1081.26 728.915C1084.48 729.86 1087.52 731.408 1090.54 732.94C1091.65 733.51 1092.81 734.099 1093.65 734.996C1094.49 735.893 1094.95 737.179 1094.43 738.11C1093.91 739.04 1092.18 739.266 1090.04 738.366L1090.06 738.382Z" fill="white"/>
</g>
<g style="mix-blend-mode:soft-light" opacity="0.5">
<path d="M1099.47 741.711C1100.47 741.246 1100.92 739.996 1100.42 739.045C1099.93 738.093 1098.56 737.596 1097.52 737.994C1096.49 738.393 1095.95 739.616 1096.38 740.59C1096.81 741.564 1098.21 742.281 1099.46 741.709L1099.47 741.711Z" fill="white"/>
</g>
<g style="mix-blend-mode:multiply" opacity="0.15">
<path d="M452.943 7.06383C450.533 5.23945 448.085 3.50193 445.619 1.7818C448.275 -2.14498 450.875 -6.10651 453.399 -10.1028C454.67 -12.1009 453.892 -14.6724 451.691 -15.8192L438.958 -22.4565C436.947 -23.499 434.404 -23.0125 433.038 -21.3097L424.803 -11.0758C421.615 -12.7959 418.408 -14.4466 415.183 -15.993C412.298 -17.383 408.75 -16.4795 407.08 -13.9253C406.871 -13.6126 406.682 -13.2998 406.473 -12.9871C404.974 -10.5545 405.733 -7.42702 408.2 -5.77638C409.338 -5.02925 410.496 -4.2995 411.634 -3.56974C401.35 8.40172 391.084 20.3732 380.8 32.362C358.485 25.6552 332.925 27.6012 312.812 38.8429C284.235 54.828 268.846 88.362 276.36 118.247C283.893 148.132 313.76 172.11 347.1 175.012C380.439 177.913 414.727 159.548 428.275 131.504C440.249 106.745 435.903 75.3828 415.524 53.5597C425.031 40.8584 433.816 27.7055 441.862 14.1876C443.247 14.9174 444.632 15.6819 446.017 16.3943C448.56 17.6974 451.805 17.1414 453.664 15.0911C453.683 15.0564 453.702 15.039 453.74 15.0043C455.903 12.6065 455.524 9.06197 452.905 7.09858L452.943 7.06383Z" fill="#2E2854"/>
</g>
<path d="M412.469 19.5218C374.481 -2.54456 321.199 0.357082 286.341 26.385C251.465 52.4129 237.632 99.6038 253.59 138.124C269.529 176.645 314.064 203.576 359.016 201.908C403.968 200.24 445.96 170.077 458.427 130.497C470.894 90.9162 453.892 43.5516 412.488 19.5045L412.469 19.5218Z" fill="#72CCF1"/>
<path d="M325.81 90.7597C357.081 95.4858 388.674 83.0452 420.325 84.7132C426.188 85.026 432.222 85.8773 437.175 88.779C440.894 90.9509 443.778 94.5301 444.67 98.3874C447.289 109.733 441.71 119.689 434.537 124.398C427.365 129.089 395.335 136.839 362.128 123.234C328.94 109.647 325.829 90.7597 325.829 90.7597H325.81Z" fill="#810C0C"/>
<path d="M444.67 98.3875C444.936 99.6733 444.974 101.011 444.727 102.332C443.494 108.778 436.226 112.791 429.262 114.286C416.872 116.961 403.855 114.494 391.71 110.967C360.174 101.81 331.521 85.7384 304.747 67.9289C300.762 65.2705 296.778 62.56 292.281 60.7356C291.825 60.5445 291.37 60.3881 290.876 60.2491C283.419 58.0598 275.355 61.8476 272.281 68.4502C261.768 90.9857 261.92 117.639 273.381 139.827C286.227 164.726 313.115 183.23 342.868 187.244C369.737 190.875 398.219 182.709 418.01 165.699C437.801 148.688 449.661 122.834 444.67 98.5265" fill="#C24444"/>
<g style="mix-blend-mode:multiply" opacity="0.15">
<path d="M369.566 158.679C339.68 163.509 308.675 159.548 279.985 150.339C294.254 169.816 317.518 183.803 342.887 187.226C369.756 190.858 398.238 182.691 418.029 165.681C432.26 153.449 442.336 136.647 445.05 119.151C426.739 140.244 398.769 153.953 369.566 158.679Z" fill="#2E2854"/>
</g>
<g style="mix-blend-mode:multiply" opacity="0.15">
<path d="M462.279 109.004C448.389 127.334 433.304 145.596 412.052 156.42C394.044 165.594 373.058 168.6 352.469 169.174C320.079 170.06 286.398 164.691 259.112 149.158C278.315 181.684 318.485 203.437 359.016 201.926C403.968 200.258 445.96 170.095 458.427 130.514C460.628 123.529 461.899 116.301 462.279 109.004Z" fill="#2E2854"/>
</g>
<g style="mix-blend-mode:soft-light" opacity="0.5">
<path d="M372.507 19.035C372.507 19.035 306.967 7.09827 273.172 59.6233C239.397 112.148 273.172 145.109 273.172 145.109C273.172 145.109 307.954 39.5029 372.507 19.035Z" fill="white"/>
</g>
<g style="mix-blend-mode:soft-light" opacity="0.5">
<path d="M282.736 43.6211C268.751 54.3589 260.516 70.2745 256.246 86.5203C254.425 93.4008 253.267 100.646 255.089 107.544C256.911 114.425 262.299 120.888 269.814 122.608C273.02 123.338 276.721 123.078 279.225 121.097C282.072 118.838 282.66 115.05 282.85 111.61C283.59 97.8489 281.066 83.1148 288.314 71.0564C290.231 67.8594 292.755 65.0099 294.994 61.9866C297.214 58.9633 299.187 55.6794 299.775 52.0654C300.345 48.4514 299.339 44.4725 296.36 42.04C293.381 39.6075 288.333 39.3121 282.736 43.6037V43.6211Z" fill="white"/>
</g>
<g style="mix-blend-mode:soft-light" opacity="0.5">
<path d="M319.168 25.8808C317.309 23.4309 313.817 22.1451 310.61 22.649C307.403 23.1529 304.614 25.429 303.646 28.2785C302.679 31.128 303.514 34.4119 305.734 36.5838C308.011 38.8252 311.711 39.8156 314.937 38.9816C318.162 38.1476 320.743 35.4892 321.217 32.4486C321.559 30.1898 320.667 27.8615 319.168 25.8808Z" fill="white"/>
</g>
<path d="M414.898 -54.9826C399.908 -31.5957 384.936 -8.19142 369.946 15.1955C369.946 15.1955 420.192 36.1846 421.634 36.6711C434.936 13.2321 446.568 -10.9888 456.454 -35.8179L414.898 -55V-54.9826Z" fill="#72CCF1"/>
<path d="M404.234 41.7794C402.128 39.8855 398.427 39.7813 396.188 41.5361C393.949 43.291 393.494 46.6618 395.221 48.8511C396.928 51.0403 400.553 51.7527 403.095 50.3801C405.638 49.0074 407.801 44.9764 404.234 41.7794Z" stroke="white" stroke-width="2.60627" stroke-linecap="round" stroke-linejoin="round"/>
<path d="M330.819 43.2215C328.713 41.3276 325.013 41.2234 322.774 42.9783C320.535 44.7332 320.079 48.1039 321.806 50.2932C323.514 52.4825 327.138 53.1949 329.681 51.8222C332.223 50.4496 334.386 46.4359 330.819 43.2215Z" stroke="white" stroke-width="2.60627" stroke-linecap="round" stroke-linejoin="round"/>
<g style="mix-blend-mode:multiply" opacity="0.15">
<path d="M244.322 365.703C230.138 358.94 215.131 352.751 199.731 347.328C205.091 342.851 211.392 339.32 218.229 337.094L205.078 334.137L203.209 324.405C193.417 327.386 184.671 333 178.187 340.326C164.735 336.304 151.127 332.904 137.636 330.247C132.629 329.253 127.583 331.982 126.223 336.459C125.413 339.117 124.694 341.786 124.014 344.467L116.575 349.052L115.203 348.705C111.869 347.855 108.392 349.603 107.464 352.631C104.692 361.621 102.078 370.659 99.607 379.732C90.5737 377.913 81.4358 376.56 72.2326 375.722C72.2326 375.722 63.7615 415.572 66.01 418.935C73.7099 420.156 81.3966 421.377 89.0965 422.598C88.3252 426.13 87.58 429.661 86.8479 433.204C81.3705 431.899 75.7492 431.145 70.0495 431.109C67.7618 438.208 66.1407 445.486 65.1995 452.836L82.5078 456.068C80.9914 464.758 79.5926 473.497 78.3376 482.295C76.8212 492.961 83.0438 503.375 93.7896 507.924C123.7 520.564 156.487 527.256 188.476 526.992C202.986 526.873 215.863 518.458 220.831 506.104C236.766 466.482 247.93 425.316 254.506 383.778C255.67 376.405 251.578 369.15 244.296 365.679L244.322 365.703Z" fill="#2E2854"/>
</g>
<path d="M90.1816 387.178C78.3769 385.765 66.4676 385.167 54.5714 385.394C54.5714 385.394 51.3947 425.89 54.0746 428.978C64.4806 429.469 74.8734 429.948 85.2793 430.439L90.1816 387.178Z" fill="#F8B334"/>
<g style="mix-blend-mode:multiply" opacity="0.15">
<path d="M71.1608 429.781C75.867 429.996 80.5732 430.224 85.2794 430.439L90.1816 387.178C85.8546 386.664 81.5144 386.257 77.1612 385.957C74.6904 400.513 72.6903 415.117 71.1739 429.781H71.1608Z" fill="#2E2854"/>
</g>
<path d="M84.5602 442.194C76.429 440.435 68.0232 439.752 59.6828 440.626C58.3493 447.928 57.6957 455.326 57.7349 462.736L81.8803 464.519L84.5602 442.194Z" fill="white"/>
<g style="mix-blend-mode:multiply" opacity="0.15">
<path d="M68.481 463.526L81.8675 464.519L84.5474 442.194C79.8151 441.165 74.9782 440.53 70.1282 440.327C69.4484 448.048 68.8862 455.793 68.4679 463.526H68.481Z" fill="#2E2854"/>
</g>
<path d="M86.5083 358.593C79.1615 401.89 75.0827 445.665 74.6513 490.542C74.5468 501.292 82.0897 510.952 93.3715 514.28C124.733 523.533 158.16 526.561 189.888 522.779C204.281 521.067 215.955 511.287 219.262 498.479C229.864 457.396 235.551 415.284 236.61 373.328C236.793 365.871 231.773 359.131 224.086 356.486C189.365 344.539 150.682 336.16 113.53 333.048C108.418 332.617 103.777 335.885 103.019 340.481C102.222 345.269 101.647 350.094 101.294 354.918L93.6984 353.852C90.2864 353.373 87.0574 355.492 86.5345 358.605L86.5083 358.593Z" fill="#8756D6"/>
<path d="M103.46 415.225L105.396 394.956L111.36 395.434C112.579 395.531 113.543 395.835 114.252 396.346C114.978 396.858 115.474 397.562 115.742 398.458C116.028 399.338 116.113 400.387 115.997 401.605C115.871 402.923 115.543 403.972 115.014 404.753C114.487 405.518 113.796 406.051 112.943 406.353C112.106 406.655 111.136 406.763 110.033 406.674L108.029 406.514L107.168 415.522L103.46 415.225ZM108.277 403.911L109.681 404.024C110.349 404.077 110.876 404.027 111.261 403.873C111.664 403.703 111.952 403.416 112.126 403.009C112.318 402.587 112.448 402.018 112.516 401.301C112.586 400.567 112.585 399.97 112.511 399.51C112.455 399.035 112.254 398.674 111.907 398.428C111.577 398.183 111.028 398.029 110.259 397.968L108.856 397.855L108.277 403.911ZM116.724 416.288L118.66 396.018L122.344 396.314L121.533 404.797L125.668 405.128L126.478 396.645L130.187 396.942L128.25 417.211L124.542 416.914L125.417 407.755L121.282 407.424L120.407 416.583L116.724 416.288ZM134.187 417.687L134.926 409.954L132.014 397.088L135.472 397.365L137.211 405.599L140.334 397.755L143.716 398.026L138.459 410.238L137.72 417.97L134.187 417.687ZM148.554 419.115C147.335 419.017 146.338 418.702 145.564 418.17C144.792 417.62 144.24 416.87 143.91 415.919C143.581 414.968 143.454 413.823 143.532 412.485L146.774 412.114C146.732 412.901 146.758 413.6 146.851 414.213C146.961 414.827 147.158 415.313 147.444 415.673C147.748 416.016 148.167 416.21 148.701 416.252C149.303 416.301 149.745 416.16 150.029 415.829C150.315 415.482 150.484 415.034 150.537 414.483C150.621 413.599 150.49 412.857 150.143 412.258C149.797 411.658 149.316 411.048 148.702 410.428L146.362 407.971C145.702 407.296 145.191 406.566 144.829 405.78C144.484 404.979 144.366 404.02 144.472 402.902C144.625 401.301 145.211 400.104 146.23 399.311C147.248 398.519 148.567 398.187 150.188 398.317C151.14 398.393 151.919 398.607 152.525 398.958C153.133 399.293 153.596 399.733 153.914 400.28C154.249 400.828 154.476 401.443 154.596 402.125C154.718 402.79 154.768 403.492 154.748 404.23L151.538 404.528C151.566 403.891 151.545 403.318 151.476 402.808C151.423 402.299 151.268 401.892 151.012 401.586C150.771 401.281 150.384 401.107 149.849 401.064C149.298 401.02 148.855 401.169 148.519 401.512C148.201 401.84 148.017 402.27 147.966 402.804C147.901 403.488 147.989 404.067 148.23 404.54C148.472 404.996 148.838 405.48 149.328 405.99L151.646 408.419C152.415 409.187 153.046 410.07 153.54 411.067C154.052 412.05 154.244 413.208 154.116 414.543C154.024 415.51 153.725 416.352 153.219 417.068C152.729 417.785 152.08 418.33 151.27 418.702C150.478 419.059 149.573 419.197 148.554 419.115ZM155.951 419.43L157.887 399.161L161.546 399.454L159.609 419.723L155.951 419.43ZM168.187 420.688C166.701 420.569 165.559 420.183 164.763 419.531C163.984 418.88 163.475 418.041 163.236 417.013C162.999 415.969 162.944 414.788 163.07 413.47L163.761 406.238C163.893 404.853 164.175 403.666 164.606 402.675C165.037 401.684 165.697 400.947 166.585 400.463C167.489 399.981 168.685 399.799 170.172 399.918C171.575 400.031 172.646 400.36 173.385 400.907C174.142 401.438 174.646 402.159 174.895 403.07C175.145 403.981 175.214 405.021 175.102 406.188L174.94 407.89L171.382 407.605L171.549 405.853C171.603 405.286 171.619 404.766 171.597 404.294C171.592 403.823 171.468 403.443 171.226 403.155C171.003 402.851 170.574 402.674 169.939 402.623C169.304 402.572 168.822 402.685 168.492 402.961C168.181 403.222 167.96 403.599 167.829 404.093C167.699 404.57 167.605 405.117 167.546 405.734L166.704 414.543C166.634 415.277 166.634 415.89 166.705 416.383C166.777 416.86 166.952 417.235 167.229 417.51C167.524 417.769 167.939 417.92 168.473 417.962C169.091 418.012 169.539 417.905 169.817 417.641C170.113 417.363 170.317 416.984 170.43 416.505C170.543 416.027 170.629 415.487 170.686 414.887L170.86 413.06L174.419 413.345L174.263 414.972C174.148 416.173 173.888 417.228 173.481 418.137C173.076 419.029 172.447 419.71 171.594 420.179C170.76 420.634 169.624 420.803 168.187 420.688ZM181.369 421.744C180.149 421.646 179.153 421.331 178.379 420.798C177.606 420.249 177.055 419.499 176.725 418.548C176.395 417.597 176.269 416.452 176.346 415.113L179.588 414.743C179.547 415.53 179.573 416.229 179.666 416.842C179.775 417.456 179.973 417.942 180.258 418.301C180.562 418.645 180.981 418.838 181.516 418.881C182.117 418.929 182.56 418.788 182.844 418.458C183.13 418.111 183.299 417.662 183.351 417.112C183.436 416.228 183.305 415.486 182.958 414.887C182.611 414.287 182.131 413.677 181.517 413.057L179.176 410.6C178.517 409.925 178.006 409.195 177.643 408.409C177.299 407.608 177.18 406.649 177.287 405.531C177.44 403.93 178.026 402.733 179.044 401.94C180.063 401.148 181.382 400.816 183.002 400.946C183.955 401.022 184.734 401.236 185.34 401.587C185.947 401.922 186.41 402.362 186.728 402.909C187.063 403.457 187.291 404.072 187.411 404.754C187.532 405.419 187.583 406.121 187.563 406.859L184.353 407.156C184.38 406.52 184.359 405.947 184.29 405.437C184.238 404.928 184.083 404.521 183.826 404.214C183.586 403.909 183.199 403.735 182.664 403.693C182.113 403.648 181.669 403.798 181.334 404.141C181.016 404.468 180.832 404.899 180.781 405.433C180.716 406.117 180.803 406.696 181.044 407.169C181.287 407.625 181.653 408.108 182.143 408.618L184.461 411.048C185.229 411.816 185.86 412.698 186.354 413.696C186.866 414.679 187.059 415.837 186.931 417.172C186.839 418.139 186.539 418.981 186.033 419.697C185.544 420.414 184.894 420.959 184.085 421.331C183.293 421.688 182.388 421.826 181.369 421.744Z" fill="#6332B3"/>
<path d="M113.15 339.739C140.904 343.354 167.585 348.25 195.038 353.373C201.522 354.582 208.228 355.971 213.497 359.586C214.922 360.568 216.334 361.908 216.255 363.536C216.19 365.033 214.83 366.277 213.288 366.816C211.745 367.355 210.046 367.331 208.398 367.295C170.069 366.385 132.406 361.884 95.0707 354.056L113.137 339.751L113.15 339.739Z" fill="white"/>
<g style="mix-blend-mode:multiply" opacity="0.15">
<path d="M170.997 341.738L167.049 359.586C170.553 353.565 175.886 348.37 182.109 344.276C178.423 343.39 174.723 342.54 170.997 341.738Z" fill="#2E2854"/>
</g>
<path d="M177.834 320.012C161.964 326.871 150.068 340.948 147.623 357.084C153.506 358.401 159.48 359.311 167.049 359.574C171.651 347.269 181.704 336.747 194.411 330.941L180.972 329.457L177.834 320V320.012Z" fill="#C244AE"/>
<g style="mix-blend-mode:multiply" opacity="0.15">
<path d="M162.37 481.098C133.949 488.208 104.196 488.831 74.6775 488.783C74.6775 489.37 74.6513 489.944 74.6513 490.531C74.5468 501.28 82.0897 510.94 93.3715 514.268C124.733 523.521 158.16 526.55 189.888 522.767C204.281 521.055 215.955 511.275 219.262 498.467C224.06 479.889 227.838 461.095 230.649 442.206C214.033 461.622 188.659 474.538 162.396 481.11L162.37 481.098Z" fill="#2E2854"/>
</g>
<g style="mix-blend-mode:multiply" opacity="0.15">
<path d="M831.3 708.941C823.862 708.051 816.199 713.288 815.001 720.078C814.933 720.492 814.888 720.926 814.865 721.34L779.373 725.542C778.604 723.348 777.338 721.237 775.507 719.353C771.664 715.379 765.741 713.495 759.977 713.764L747.023 662.386C749.917 661.289 752.517 659.571 754.461 657.315C760.361 650.463 759.931 639.181 751.251 632.806C743.18 626.886 729.82 628.542 723.739 636.201C717.68 643.88 720.122 656.011 728.78 661.186C732.759 663.566 737.687 664.291 742.344 663.587L755.184 714.489C752.404 715.234 749.826 716.517 747.747 718.401C746.209 719.767 745.011 721.402 744.13 723.162C732.804 717.076 721.591 710.659 710.627 704.014C710.83 703.559 710.989 703.083 711.124 702.586C712.571 696.707 708.366 689.317 700.251 688.344C693.717 687.558 686.981 692.174 685.941 698.115C684.901 704.076 689.693 710.369 696.159 711.528C700.477 712.294 705.043 710.659 708.027 707.74C719.353 714.592 730.927 721.216 742.638 727.488C741.485 733.326 743.316 739.743 748.086 743.8C748.56 744.214 749.08 744.587 749.6 744.939L737.009 768.909C734.612 767.771 731.922 766.963 728.983 766.612C716.437 765.121 703.461 773.96 701.449 785.407C699.437 796.854 708.683 808.985 721.116 811.179C733.55 813.373 747.068 805.279 749.872 793.977C751.816 786.132 748.493 776.9 741.1 771.352L753.873 747.029C760.564 749.368 768.748 748.354 774.106 743.924C778.288 740.488 780.549 735.168 780.209 729.827L815.453 725.646C817.013 730.324 821.33 734.319 826.62 735.251C833.99 736.555 841.993 731.753 843.643 725.066C845.293 718.36 840.501 709.955 831.277 708.858L831.3 708.941Z" fill="#2E2854"/>
</g>
<path d="M748.967 630.446C741.417 623.967 727.966 624.671 721.252 631.895C714.56 639.119 715.962 651.394 724.168 657.17C731.719 662.49 743.632 661.517 750.098 655.1C756.563 648.703 757.083 637.422 748.967 630.446Z" fill="#CF3A56"/>
<path d="M748.967 630.446C741.417 623.967 727.966 624.671 721.252 631.895C714.56 639.119 715.962 651.394 724.168 657.17C731.719 662.49 743.632 661.517 750.098 655.1C756.563 648.703 757.083 637.422 748.967 630.446Z" stroke="#CF3A56" stroke-width="3.10502" stroke-miterlimit="10"/>
<path d="M751.092 730.614C749.917 730.614 748.877 729.828 748.696 728.731L736.036 651.581C735.833 650.38 736.737 649.242 738.071 649.056C739.382 648.89 740.625 649.697 740.829 650.919L753.489 728.068C753.692 729.269 752.788 730.407 751.454 730.594C751.341 730.594 751.205 730.614 751.092 730.614Z" fill="white"/>
<path d="M825.512 714.406C821.149 711.508 814.39 712.336 810.999 716.145C807.608 719.974 808.106 726.184 812.084 729.517C816.063 732.829 822.868 732.726 826.711 729.289C830.554 725.853 831.797 718.587 825.512 714.406Z" stroke="white" stroke-width="3.10502" stroke-linecap="round" stroke-linejoin="round"/>
<path d="M822.348 712.005C815.001 710.597 806.908 715.275 805.145 721.941C803.381 728.606 808.242 736.162 815.453 737.983C822.687 739.805 831.074 735.603 833.29 729.041C835.505 722.479 831.436 713.743 822.325 712.005H822.348Z" fill="#F8B334"/>
<g style="mix-blend-mode:multiply" opacity="0.15">
<path d="M810.434 735.562C811.904 736.679 813.599 737.528 815.453 738.004C822.687 739.826 831.074 735.624 833.289 729.062C833.945 727.095 834.035 724.922 833.606 722.81C829.582 727.675 822.009 734.382 810.412 735.582L810.434 735.562Z" fill="#2E2854"/>
</g>
<g style="mix-blend-mode:soft-light" opacity="0.3">
<path d="M823.342 712.253C823.003 712.17 822.687 712.067 822.325 712.005C814.978 710.597 806.885 715.275 805.122 721.941C804.805 723.121 804.715 724.321 804.783 725.501C807.134 720.512 812.514 712.812 823.32 712.253H823.342Z" fill="white"/>
</g>
<path d="M756.269 729.91C754.981 729.91 753.918 728.999 753.851 727.799C753.783 726.577 754.8 725.542 756.134 725.48L809.508 722.975C810.819 722.893 811.972 723.845 812.039 725.066C812.107 726.288 811.09 727.323 809.756 727.385L756.383 729.889C756.383 729.889 756.292 729.889 756.247 729.889L756.269 729.91Z" fill="white"/>
<path d="M719.421 777.852C719.014 777.852 718.584 777.748 718.2 777.562C717.047 776.941 716.663 775.595 717.319 774.54L743.858 732.663C744.537 731.608 746.006 731.235 747.159 731.856C748.312 732.477 748.696 733.823 748.041 734.878L721.501 776.755C721.049 777.458 720.235 777.852 719.398 777.852H719.421Z" fill="white"/>
<path d="M715.442 762.306C703.054 759.925 689.377 767.833 686.393 779.093C683.409 790.354 691.615 803.106 703.823 806.19C716.03 809.274 730.204 802.153 733.934 791.079C737.664 780.004 730.792 765.266 715.42 762.306H715.442Z" fill="#CF3A56"/>
<g style="mix-blend-mode:multiply" opacity="0.15">
<path d="M695.345 802.092C697.832 803.975 700.703 805.404 703.845 806.211C716.053 809.295 730.227 802.174 733.957 791.1C735.087 787.767 735.223 784.103 734.5 780.543C727.695 788.74 714.922 800.084 695.345 802.092Z" fill="#2E2854"/>
</g>
<g style="mix-blend-mode:soft-light" opacity="0.3">
<path d="M717.16 762.741C716.595 762.596 716.053 762.43 715.465 762.327C703.077 759.946 689.4 767.854 686.416 779.114C685.896 781.102 685.737 783.11 685.85 785.138C689.829 776.713 698.917 763.714 717.16 762.761V762.741Z" fill="white"/>
</g>
<path d="M765.809 718.443C759.57 710.887 746.187 709.48 738.23 715.565C730.272 721.651 729.413 733.968 736.421 740.923C742.886 747.34 754.8 748.23 762.351 742.91C769.901 737.611 772.523 726.557 765.809 718.443Z" fill="#F8B334"/>
<path d="M765.809 718.443C759.57 710.887 746.187 709.48 738.23 715.565C730.272 721.651 729.413 733.968 736.421 740.923C742.886 747.34 754.8 748.23 762.351 742.91C769.901 737.611 772.523 726.557 765.809 718.443Z" stroke="#F3C100" stroke-width="3.10502" stroke-miterlimit="10"/>
<path d="M738.139 727.447C737.664 727.447 737.19 727.323 736.783 727.054C722.36 718.008 708.073 708.382 694.373 698.405C693.333 697.639 693.152 696.252 693.989 695.3C694.825 694.347 696.34 694.182 697.38 694.948C710.989 704.842 725.163 714.427 739.518 723.39C740.626 724.073 740.897 725.46 740.151 726.474C739.676 727.095 738.93 727.447 738.162 727.447H738.139Z" fill="white"/>
<path d="M693.424 682.217C686.981 680.975 679.86 685.094 678.322 690.952C676.763 696.81 681.035 703.455 687.388 705.049C693.74 706.643 701.11 702.958 703.054 697.183C704.998 691.428 701.426 683.748 693.424 682.217Z" fill="#72CCF1"/>
<g style="mix-blend-mode:multiply" opacity="0.15">
<path d="M682.979 702.897C684.268 703.869 685.76 704.615 687.388 705.029C693.74 706.623 701.11 702.938 703.054 697.163C703.642 695.424 703.709 693.519 703.325 691.677C699.799 695.941 693.152 701.841 682.957 702.897H682.979Z" fill="#2E2854"/>
</g>
<g style="mix-blend-mode:soft-light" opacity="0.3">
<path d="M694.305 682.444C694.011 682.362 693.717 682.279 693.423 682.217C686.981 680.975 679.86 685.094 678.322 690.952C678.051 691.987 677.961 693.043 678.028 694.078C680.108 689.689 684.833 682.941 694.305 682.444Z" fill="white"/>
</g>
<g style="mix-blend-mode:multiply" opacity="0.15">
<path d="M166.973 67.3376C165.028 71.9672 158.746 74.6244 153.63 72.9808C152.059 72.474 150.683 71.5974 149.576 70.4742L130.309 84.4864C131.805 88.2942 130.938 92.6773 128.335 95.5537C124.326 99.9642 116.383 100.745 111.447 97.2111C106.51 93.6772 105.403 86.4314 109.113 81.8018C109.682 81.0895 110.355 80.4731 111.088 79.9252C106.376 73.0082 101.828 65.9678 97.4754 58.8316C91.5967 61.1601 84.2072 60.4205 79.3607 56.5168C72.5994 51.0516 72.1656 40.2993 78.4482 34.3822C84.7458 28.465 96.4882 28.5883 102.621 34.6287C109.233 41.1212 108.036 50.9009 102.008 56.1196C101.454 56.599 100.871 57.0099 100.258 57.4071C104.581 64.5022 109.113 71.5152 113.795 78.4049C117.64 76.8571 122.351 76.994 125.837 79.1856C127.048 79.9389 128.036 80.8429 128.799 81.8291L147.766 68.0361C146.584 65.8446 146.24 63.2695 147.048 60.941C148.678 56.2155 154.767 53.2021 159.972 54.5444C166.434 56.2154 168.902 62.6942 166.958 67.3239L166.973 67.3376Z" fill="#CF3A56"/>
</g>
<path d="M160.81 44.1757C155.514 43.1621 149.666 46.5316 148.379 51.353C147.108 56.1744 150.608 61.6259 155.829 62.9545C161.049 64.2695 167.122 61.2287 168.723 56.4895C170.323 51.7503 167.377 45.4359 160.81 44.1757Z" fill="#CF3A56"/>
<g style="mix-blend-mode:multiply" opacity="0.15">
<path d="M152.208 61.1872C153.271 61.9953 154.497 62.6117 155.843 62.9404C161.064 64.2554 167.137 61.2146 168.738 56.4754C169.216 55.0509 169.276 53.4894 168.962 51.9553C166.045 55.4618 160.585 60.3106 152.208 61.1872Z" fill="#CF3A56"/>
</g>
<g style="mix-blend-mode:soft-light" opacity="0.3">
<path d="M161.543 44.3538C161.304 44.2853 161.064 44.2168 160.81 44.1757C155.515 43.1621 149.666 46.5316 148.379 51.353C148.155 52.2023 148.08 53.0652 148.14 53.9281C149.845 50.3258 153.735 44.7647 161.528 44.3538H161.543Z" fill="white"/>
</g>
<path d="M119.779 86.7601C119.345 86.7601 118.911 86.5958 118.597 86.2807C117.998 85.6781 118.043 84.7604 118.701 84.2125L152.478 56.0374C153.136 55.4895 154.138 55.5306 154.737 56.1333C155.335 56.7359 155.29 57.6537 154.632 58.2015L120.856 86.3766C120.556 86.6369 120.167 86.7601 119.779 86.7601Z" fill="white"/>
<path d="M128.589 70.8714C123.189 67.9539 115.426 69.6797 112.075 74.5285C108.724 79.3773 110.355 86.5409 115.545 89.7597C120.736 92.9786 128.604 91.7047 132.284 87.0477C135.949 82.4044 135.291 74.4874 128.589 70.8714Z" fill="#F8B334"/>
<g style="mix-blend-mode:multiply" opacity="0.15">
<path d="M112.269 86.5958C113.107 87.8423 114.199 88.9243 115.545 89.7599C120.736 92.9787 128.604 91.7049 132.284 87.0478C133.391 85.6507 134.094 83.9523 134.363 82.1716C129.756 85.0206 121.813 88.486 112.284 86.5958H112.269Z" fill="#CF3A56"/>
</g>
<g style="mix-blend-mode:soft-light" opacity="0.3">
<path d="M129.307 71.3236C129.068 71.1729 128.843 71.0222 128.589 70.8853C123.189 67.9678 115.426 69.6936 112.075 74.5424C111.491 75.3916 111.058 76.323 110.773 77.2818C114.094 73.9123 120.601 69.132 129.322 71.3373L129.307 71.3236Z" fill="white"/>
</g>
<path d="M119.21 78.2132C118.717 78.2132 118.238 78.0077 117.924 77.6242C108.844 66.3788 100.153 54.654 92.1203 42.7649C91.6566 42.08 91.881 41.176 92.6439 40.7514C93.3918 40.3268 94.3791 40.5323 94.8428 41.2308C102.831 53.0515 111.462 64.7078 120.497 75.8846C121.02 76.5421 120.871 77.4598 120.168 77.9392C119.883 78.131 119.554 78.2269 119.21 78.2269V78.2132Z" fill="white"/>
<path d="M102.113 27.8761C95.5308 22.2329 83.8033 22.8356 77.9695 29.1362C72.1356 35.4369 73.3622 46.1207 80.5124 51.1613C87.0942 55.7909 97.4754 54.9417 103.1 49.367C108.724 43.7922 109.188 33.9576 102.113 27.8898V27.8761Z" fill="#CF3A56"/>
<path d="M102.113 27.8761C95.5308 22.2329 83.8033 22.8356 77.9695 29.1362C72.1356 35.4369 73.3622 46.1207 80.5124 51.1613C87.0942 55.7909 97.4754 54.9417 103.1 49.367C108.724 43.7922 109.188 33.9576 102.113 27.8898V27.8761Z" stroke="#CF3A56" stroke-width="2.05457" stroke-miterlimit="10"/>
<g style="mix-blend-mode:multiply" opacity="0.15">
<path d="M1426.2 818.34C1421.39 817.967 1416.61 821.529 1416.04 825.931C1415.95 826.621 1416 827.292 1416.1 827.964L1389.74 838.259C1389.29 837.27 1388.74 836.319 1388.03 835.443C1386.24 833.279 1383.65 831.75 1380.8 830.966L1384.24 799.186C1388.87 799.261 1393.53 797.806 1396.85 794.822C1402.98 789.32 1404 779.193 1397.05 772.59C1390.78 766.622 1379.17 766.547 1372.65 772.217L1357.11 759.945C1358.29 758.304 1359.13 756.495 1359.51 754.537C1361.08 746.591 1354.99 736.93 1344.1 736.072C1335.32 735.382 1326.6 741.891 1325.56 749.893C1324.52 757.912 1331.37 766.1 1340.08 767.294C1345.22 768.002 1350.49 766.193 1354.28 762.985L1369.94 775.351C1365.95 781.71 1367.25 790.775 1373.43 795.605C1375.32 797.078 1377.56 798.067 1379.92 798.645L1376.48 830.388C1374.95 830.388 1373.45 830.612 1372 831.06C1366.38 832.869 1362.35 838.184 1362.47 843.63C1362.59 849.076 1366.85 854.242 1372.55 855.846C1378.25 857.431 1384.93 855.343 1388.36 850.867C1390.27 848.367 1391.06 845.234 1390.76 842.175L1417.69 831.656C1419.15 833.615 1421.39 835.107 1423.98 835.461C1428.77 836.114 1433.78 832.831 1434.63 828.467C1435.49 824.103 1432.15 818.806 1426.18 818.34H1426.2Z" fill="#2E2854"/>
</g>
<path d="M1360.02 846.391C1359.86 846.391 1359.7 846.391 1359.56 846.335C1358.37 846.092 1357.64 845.029 1357.91 843.947L1370.51 792.192C1370.78 791.111 1371.94 790.439 1373.12 790.682C1374.3 790.924 1375.04 791.987 1374.77 793.069L1362.16 844.824C1361.94 845.757 1361.04 846.391 1360.04 846.391H1360.02Z" fill="white"/>
<path d="M1411.37 827.012C1406.65 826.099 1401.43 829.12 1400.29 833.428C1399.15 837.737 1402.29 842.604 1406.95 843.779C1411.62 844.954 1417.03 842.231 1418.46 838.016C1419.89 833.783 1417.26 828.15 1411.39 827.031L1411.37 827.012Z" fill="#72CCF1"/>
<g style="mix-blend-mode:soft-light" opacity="0.3">
<path d="M1412.02 827.18C1411.8 827.124 1411.6 827.068 1411.37 827.012C1406.65 826.099 1401.43 829.12 1400.29 833.428C1400.09 834.193 1400.03 834.958 1400.09 835.722C1401.62 832.496 1405.08 827.535 1412.04 827.18H1412.02Z" fill="white"/>
</g>
<path d="M1388.44 778.372C1382.82 771.565 1370.76 770.297 1363.59 775.78C1356.44 781.245 1355.65 792.36 1361.96 798.627C1367.78 804.408 1378.52 805.21 1385.32 800.417C1392.12 795.643 1394.49 785.683 1388.44 778.372Z" fill="#F8B334"/>
<path d="M1388.44 778.372C1382.82 771.565 1370.76 770.297 1363.59 775.78C1356.44 781.245 1355.65 792.36 1361.96 798.627C1367.78 804.408 1378.52 805.21 1385.32 800.417C1392.12 795.643 1394.49 785.683 1388.44 778.372Z" stroke="#F3C100" stroke-width="2.79758" stroke-miterlimit="10"/>
<path d="M1368.11 784.172C1367.52 784.172 1366.93 783.949 1366.5 783.52L1332.06 748.886C1331.24 748.065 1331.31 746.815 1332.2 746.069C1333.1 745.323 1334.46 745.379 1335.28 746.2L1369.72 780.834C1370.53 781.655 1370.47 782.904 1369.58 783.65C1369.15 784.005 1368.64 784.172 1368.11 784.172Z" fill="white"/>
<path d="M1340.65 736.297C1332.02 734.637 1322.51 740.138 1320.43 747.99C1318.35 755.842 1324.05 764.72 1332.57 766.865C1341.06 769.01 1350.94 764.048 1353.55 756.346C1356.15 748.625 1351.37 738.367 1340.67 736.315L1340.65 736.297Z" fill="#72CCF1"/>
<g style="mix-blend-mode:multiply" opacity="0.15">
<path d="M1326.66 763.993C1328.39 765.298 1330.39 766.305 1332.57 766.865C1341.06 769.01 1350.94 764.049 1353.55 756.346C1354.32 754.033 1354.42 751.478 1353.91 748.998C1349.19 754.705 1340.29 762.594 1326.66 764.011V763.993Z" fill="#2E2854"/>
</g>
<g style="mix-blend-mode:soft-light" opacity="0.3">
<path d="M1341.86 736.595C1341.47 736.502 1341.08 736.371 1340.67 736.297C1332.04 734.637 1322.53 740.138 1320.45 747.99C1320.08 749.371 1319.98 750.788 1320.06 752.187C1322.83 746.312 1329.15 737.266 1341.86 736.614V736.595Z" fill="white"/>
</g>
</g>
</g>
<defs>
<clipPath id="clip0_102_4324">
<rect width="1512" height="831" fill="white"/>
</clipPath>
</defs>
</svg>
