<svg width="50" height="50" viewBox="0 0 50 50" fill="none" xmlns="http://www.w3.org/2000/svg">
<circle cx="25" cy="25" r="25" fill="#004D91"/>
<circle cx="25" cy="25" r="21" stroke="white" stroke-width="1.5"/>
<path d="M25.0895 11.5C29.4995 11.5 32.4995 14.335 32.4995 18.295C32.5284 19.5294 32.2247 20.7488 31.6204 21.8255C31.016 22.9022 30.1333 23.7966 29.0645 24.415C26.9345 25.795 26.3345 26.71 26.3345 28.48V29.5H22.5695V28.285C22.4323 27.1346 22.6452 25.9695 23.1804 24.9419C23.7156 23.9143 24.5482 23.072 25.5695 22.525C27.5795 21.175 28.2545 20.23 28.2545 18.46C28.2625 18.0438 28.1879 17.6302 28.035 17.243C27.8821 16.8559 27.6541 16.5029 27.3639 16.2044C27.0738 15.9059 26.7274 15.6679 26.3448 15.504C25.9621 15.3402 25.5508 15.2539 25.1345 15.25H24.8795C24.4264 15.234 23.9746 15.3074 23.5498 15.4661C23.1251 15.6248 22.7359 15.8657 22.4043 16.175C22.0727 16.4843 21.8054 16.8559 21.6175 17.2685C21.4297 17.6812 21.325 18.1269 21.3095 18.58V18.835H17.4995C17.4264 16.9659 18.0975 15.144 19.3657 13.769C20.6339 12.394 22.3956 11.578 24.2645 11.5C24.5393 11.4849 24.8148 11.4849 25.0895 11.5Z" fill="white"/>
<path d="M25 38.5C26.6569 38.5 28 37.1569 28 35.5C28 33.8431 26.6569 32.5 25 32.5C23.3431 32.5 22 33.8431 22 35.5C22 37.1569 23.3431 38.5 25 38.5Z" fill="white"/>
</svg>
