<svg width="50" height="50" viewBox="0 0 50 50" fill="none" xmlns="http://www.w3.org/2000/svg">
<circle cx="25" cy="25" r="25" fill="#004D91"/>
<path d="M25 11.25L13.75 16.25V23.75C13.75 30.6875 18.55 37.175 25 38.75C31.45 37.175 36.25 30.6875 36.25 23.75V16.25L25 11.25ZM25 16.125C25.7417 16.125 26.4667 16.3449 27.0834 16.757C27.7001 17.169 28.1807 17.7547 28.4645 18.4399C28.7484 19.1252 28.8226 19.8792 28.6779 20.6066C28.5333 21.334 28.1761 22.0022 27.6517 22.5267C27.1272 23.0511 26.459 23.4083 25.7316 23.5529C25.0042 23.6976 24.2502 23.6234 23.5649 23.3395C22.8797 23.0557 22.294 22.5751 21.882 21.9584C21.4699 21.3417 21.25 20.6167 21.25 19.875C21.25 18.8804 21.6451 17.9266 22.3483 17.2234C23.0516 16.5201 24.0054 16.125 25 16.125ZM25 26C27.5 26 32.5 27.3625 32.5 29.85C31.679 31.0877 30.5645 32.1029 29.2559 32.8052C27.9473 33.5075 26.4852 33.8751 25 33.8751C23.5148 33.8751 22.0527 33.5075 20.7441 32.8052C19.4355 32.1029 18.321 31.0877 17.5 29.85C17.5 27.3625 22.5 26 25 26Z" fill="white"/>
<circle cx="25" cy="25" r="21" stroke="white" stroke-width="1.5"/>
</svg>
