<svg width="97" height="97" viewBox="0 0 97 97" fill="none" xmlns="http://www.w3.org/2000/svg">
<circle cx="48.5" cy="48.4998" r="47.8958" fill="#F8B334"/>
<circle cx="48.5001" cy="48.4998" r="40.2325" stroke="white" stroke-width="3.15104"/>
<path d="M49.168 22.8C57.4 22.8 63 28.092 63 35.484C63.0538 37.7882 62.487 40.0644 61.3589 42.0743C60.2308 44.0842 58.583 45.7537 56.588 46.908C52.612 49.484 51.492 51.192 51.492 54.496V56.4H44.464V54.132C44.2078 51.9845 44.6052 49.8097 45.6042 47.8915C46.6032 45.9734 48.1575 44.4011 50.064 43.38C53.816 40.86 55.076 39.096 55.076 35.792C55.0909 35.0151 54.9516 34.2431 54.6662 33.5203C54.3809 32.7976 53.9551 32.1387 53.4136 31.5815C52.872 31.0243 52.2254 30.58 51.5111 30.2742C50.7968 29.9684 50.029 29.8073 49.252 29.8H48.776C47.9302 29.7701 47.0867 29.9072 46.2939 30.2034C45.5011 30.4997 44.7745 30.9494 44.1555 31.5267C43.5366 32.104 43.0376 32.7976 42.6869 33.5679C42.3363 34.3382 42.1409 35.1701 42.112 36.016V36.492H35C34.8635 33.003 36.1163 29.6022 38.4836 27.0355C40.8508 24.4688 44.1394 22.9456 47.628 22.8C48.141 22.7717 48.6551 22.7717 49.168 22.8Z" fill="white"/>
<path d="M49 73.2C52.0928 73.2 54.6 70.6928 54.6 67.6C54.6 64.5072 52.0928 62 49 62C45.9072 62 43.4 64.5072 43.4 67.6C43.4 70.6928 45.9072 73.2 49 73.2Z" fill="white"/>
</svg>
