<svg width="96" height="96" viewBox="0 0 96 96" fill="none" xmlns="http://www.w3.org/2000/svg">
<circle cx="47.8958" cy="47.8958" r="47.8958" fill="#F8B334"/>
<path d="M48 22.3334L27 31.6667V45.6667C27 58.6167 35.96 70.7267 48 73.6667C60.04 70.7267 69 58.6167 69 45.6667V31.6667L48 22.3334ZM48 31.4334C49.3845 31.4334 50.7378 31.8439 51.889 32.6131C53.0401 33.3823 53.9373 34.4755 54.4672 35.7546C54.997 37.0337 55.1356 38.4411 54.8655 39.799C54.5954 41.1569 53.9287 42.4042 52.9497 43.3831C51.9708 44.3621 50.7235 45.0288 49.3656 45.2989C48.0078 45.569 46.6003 45.4303 45.3212 44.9005C44.0421 44.3707 42.9489 43.4735 42.1797 42.3224C41.4105 41.1712 41 39.8178 41 38.4334C41 36.5769 41.7375 34.7964 43.0503 33.4836C44.363 32.1709 46.1435 31.4334 48 31.4334ZM48 49.8667C52.6667 49.8667 62 52.41 62 57.0534C60.4675 59.3637 58.3871 61.2588 55.9444 62.5698C53.5016 63.8807 50.7723 64.5668 48 64.5668C45.2277 64.5668 42.4984 63.8807 40.0556 62.5698C37.6129 61.2588 35.5325 59.3637 34 57.0534C34 52.41 43.3333 49.8667 48 49.8667Z" fill="white"/>
<circle cx="47.8959" cy="47.8957" r="40.2325" stroke="white" stroke-width="3.15104"/>
</svg>
